<mxfile host="app.diagrams.net" modified="2024-07-16T07:47:12.871Z" agent="Mozilla/5.0 (Windows NT 10.0; Win64; x64) AppleWebKit/537.36 (KHTML, like Gecko) Chrome/126.0.0.0 Safari/537.36" version="24.6.5" etag="onDE4C0-hbXcK21KFhZS" type="github">
  <diagram name="Page-1" id="M6uMsGvWsQjyKYry4qM-">
    <mxGraphModel>
      <root>
        <mxCell id="0" />
        <mxCell id="1" parent="0" />
      </root>
    </mxGraphModel>
  </diagram>
</mxfile>
